<svg width="72" height="72" viewBox="0 0 72 72" fill="none" xmlns="http://www.w3.org/2000/svg">
<path d="M49.5 36C49.5033 33.4192 48.6661 30.9076 47.115 28.845L53.1 22.905C54.2703 23.3918 55.5226 23.6514 56.79 23.67C57.9366 23.706 59.079 23.5157 60.152 23.1099C61.225 22.7042 62.2075 22.0909 63.0433 21.3052C63.8792 20.5195 64.5519 19.5768 65.0232 18.5309C65.4945 17.4851 65.7551 16.3566 65.79 15.21C65.79 12.823 64.8418 10.5339 63.154 8.84603C61.4661 7.1582 59.1769 6.20999 56.79 6.20999C54.403 6.20999 52.1139 7.1582 50.426 8.84603C48.7382 10.5339 47.79 12.823 47.79 15.21C47.7957 16.602 48.1683 17.9678 48.87 19.17L42.885 25.155C40.7812 23.9774 38.411 23.3578 36 23.355C33.0232 23.314 30.1163 24.2581 27.7317 26.0404C25.3471 27.8228 23.6185 30.3434 22.815 33.21H19.71C19.0304 31.5295 17.8591 30.0933 16.3496 29.0897C14.84 28.086 13.0626 27.5615 11.25 27.585C8.9419 27.5121 6.69894 28.3567 5.01216 29.9338C3.32537 31.511 2.33217 33.6922 2.25 36C2.28491 37.1466 2.54546 38.2751 3.01676 39.3209C3.48805 40.3668 4.16085 41.3095 4.99669 42.0952C5.83253 42.8809 6.81502 43.4942 7.88801 43.8999C8.96099 44.3057 10.1034 44.496 11.25 44.46C13.0626 44.4835 14.84 43.959 16.3496 42.9553C17.8591 41.9516 19.0304 40.5155 19.71 38.835H22.815C23.6185 41.7016 25.3471 44.2222 27.7317 46.0045C30.1163 47.7869 33.0232 48.731 36 48.69C37.7199 48.744 39.4335 48.4585 41.043 47.8499C42.6525 47.2412 44.1262 46.3214 45.38 45.1428C46.6337 43.9643 47.6429 42.5502 48.3499 40.9814C49.0568 39.4126 49.4476 37.7199 49.5 36ZM56.79 12.42C57.607 12.3448 58.4207 12.596 59.0531 13.1188C59.6855 13.6415 60.0852 14.3934 60.165 15.21C60.0338 16.0105 59.6224 16.7383 59.0042 17.2635C58.386 17.7887 57.6012 18.077 56.79 18.077C55.9788 18.077 55.194 17.7887 54.5758 17.2635C53.9576 16.7383 53.5462 16.0105 53.415 15.21C53.5059 14.3981 53.9087 13.6532 54.5384 13.1326C55.1681 12.6121 55.9755 12.3566 56.79 12.42ZM11.25 38.835C10.4284 38.8977 9.61497 38.6361 8.98406 38.1061C8.35315 37.5761 7.955 36.8201 7.875 36C7.96591 35.1881 8.36872 34.4432 8.99843 33.9226C9.62813 33.4021 10.4355 33.1466 11.25 33.21C12.0645 33.1466 12.8719 33.4021 13.5016 33.9226C14.1313 34.4432 14.5341 35.1881 14.625 36C14.545 36.8201 14.1469 37.5761 13.5159 38.1061C12.885 38.6361 12.0716 38.8977 11.25 38.835ZM36 43.065C34.0211 43.1633 32.0834 42.4762 30.6086 41.153C29.1338 39.8299 28.2412 37.9779 28.125 36C28.241 34.0258 29.1352 32.1781 30.6114 30.8622C32.0877 29.5462 34.0255 28.8694 36 28.98C37.9716 28.8813 39.9028 29.5623 41.3764 30.8759C42.8499 32.1895 43.7474 34.0301 43.875 36C43.7474 37.9737 42.8514 39.8188 41.3792 41.1395C39.9071 42.4603 37.9759 43.1515 36 43.065Z" fill="#DAFFD4" fill-opacity="0.85"/>
<path d="M11.25 19.71C12.5202 19.7183 13.7778 19.4576 14.94 18.945L22.86 27C24.0068 25.4686 25.407 24.1445 27 23.085L19.17 15.21C19.8717 14.0079 20.2443 12.642 20.25 11.25C20.1678 8.94222 19.1746 6.761 17.4878 5.18385C15.8011 3.60671 13.5581 2.76213 11.25 2.83501C8.9419 2.76213 6.69894 3.60671 5.01216 5.18385C3.32537 6.761 2.33217 8.94222 2.25 11.25C2.28491 12.3966 2.54546 13.5251 3.01676 14.571C3.48805 15.6168 4.16085 16.5595 4.99669 17.3452C5.83253 18.1309 6.81502 18.7442 7.88801 19.1499C8.96099 19.5557 10.1034 19.746 11.25 19.71ZM11.25 8.46001C12.0645 8.39658 12.8719 8.65211 13.5016 9.17267C14.1313 9.69322 14.5341 10.4381 14.625 11.25C14.545 12.0701 14.1469 12.8262 13.5159 13.3561C12.885 13.8861 12.0716 14.1478 11.25 14.085C10.4284 14.1478 9.61497 13.8861 8.98406 13.3561C8.35315 12.8262 7.955 12.0701 7.875 11.25C7.96591 10.4381 8.36872 9.69322 8.99843 9.17267C9.62813 8.65211 10.4355 8.39658 11.25 8.46001ZM60.75 52.335C59.4798 52.3268 58.2222 52.5875 57.06 53.1L49.14 45C47.9682 46.487 46.5532 47.7651 44.955 48.78L52.785 56.61C52.097 57.8157 51.7399 59.1819 51.75 60.57C51.75 62.957 52.6982 65.2461 54.386 66.934C56.0739 68.6218 58.3631 69.57 60.75 69.57C63.1369 69.57 65.4261 68.6218 67.114 66.934C68.8018 65.2461 69.75 62.957 69.75 60.57C69.622 58.2941 68.6088 56.1585 66.927 54.6197C65.2453 53.0809 63.0283 52.2609 60.75 52.335ZM60.75 63.585C59.9284 63.6478 59.115 63.3861 58.4841 62.8561C57.8531 62.3262 57.455 61.5701 57.375 60.75C57.5062 59.9495 57.9176 59.2217 58.5358 58.6965C59.154 58.1713 59.9388 57.883 60.75 57.883C61.5612 57.883 62.346 58.1713 62.9642 58.6965C63.5824 59.2217 63.9938 59.9495 64.125 60.75C64.045 61.5701 63.6469 62.3262 63.0159 62.8561C62.385 63.3861 61.5716 63.6478 60.75 63.585Z" fill="#DAFFD4" fill-opacity="0.85"/>
</svg>
