<svg width="72" height="72" viewBox="0 0 72 72" fill="none" xmlns="http://www.w3.org/2000/svg">
<path d="M20.9698 67.5H16.3843C14.0672 67.501 11.8003 66.8246 9.86253 65.5541C7.92479 64.2835 6.40073 62.4742 5.47788 60.3488C4.55502 58.2233 4.27362 55.8745 4.6683 53.5912C5.06298 51.3079 6.11653 49.1898 7.69931 47.4975L11.2858 43.65C13.0175 41.7943 13.9609 39.3387 13.9173 36.801C13.8736 34.2632 12.8463 31.8415 11.0518 30.0465L7.52831 26.523C7.11845 26.0986 6.89167 25.5303 6.89679 24.9403C6.90192 24.3504 7.13855 23.7861 7.55572 23.3689C7.97289 22.9517 8.53721 22.7151 9.12716 22.71C9.7171 22.7049 10.2855 22.9316 10.7098 23.3415L14.2288 26.865C16.8477 29.4848 18.347 33.0191 18.4108 36.7229C18.4746 40.4267 17.0979 44.0105 14.5708 46.719L10.9843 50.5665C10.0035 51.6192 9.35111 52.9353 9.10723 54.3534C8.86335 55.7714 9.03854 57.2298 9.61133 58.5497C10.1841 59.8697 11.1296 60.9938 12.3319 61.7843C13.5341 62.5748 14.9409 62.9973 16.3798 63H18.6433C18.6343 62.082 18.6388 60.93 18.6793 59.616C18.7963 56.196 19.1743 51.5925 20.2543 46.953C21.3343 42.3405 23.1433 37.512 26.2393 33.795C28.9978 30.483 32.7463 28.1025 37.6783 27.549V14.337C37.6819 11.7284 38.72 9.2277 40.565 7.38355C42.41 5.5394 44.9112 4.50238 47.5198 4.5C49.8058 4.5 51.6598 6.3585 51.6598 8.649V10.8225H56.9563C59.9263 10.8225 62.6758 12.357 64.2418 14.8815L66.1993 18.0405C69.6238 23.571 65.8933 30.6585 59.5618 31.113V60.507C59.5618 64.368 56.4343 67.5 52.5733 67.5H50.0848V60.507C50.0854 58.966 49.7824 57.44 49.1931 56.0162C48.6038 54.5923 47.7398 53.2985 46.6503 52.2087C45.5609 51.1188 44.2674 50.2543 42.8438 49.6644C41.4202 49.0746 39.8943 48.771 38.3533 48.771H34.4023C33.8056 48.771 33.2333 49.0081 32.8113 49.43C32.3894 49.852 32.1523 50.4243 32.1523 51.021C32.1523 51.6177 32.3894 52.19 32.8113 52.612C33.2333 53.0339 33.8056 53.271 34.4023 53.271H38.3533C42.3448 53.271 45.5848 56.511 45.5848 60.507V67.5H20.9698Z" fill="black"/>
</svg>
