<svg viewBox="0 0 40 40" fill="none" xmlns="http://www.w3.org/2000/svg">
<path d="M36.32 9.68012C30.56 0.800121 18.8 -1.83988 9.67996 3.68012C0.799959 9.20012 -2.08004 21.2001 3.67996 30.0801L4.15996 30.8001L2.23996 38.0001L9.43996 36.0801L10.16 36.5601C13.28 38.2401 16.64 39.2001 20 39.2001C23.6 39.2001 27.2 38.2401 30.32 36.3201C39.2 30.5601 41.84 18.8001 36.32 9.68012ZM31.28 28.1601C30.32 29.6001 29.12 30.5601 27.44 30.8001C26.48 30.8001 25.28 31.2801 20.48 29.3601C16.4 27.4401 13.04 24.3201 10.64 20.7201C9.19996 19.0401 8.47996 16.8801 8.23996 14.7201C8.23996 12.8001 8.95996 11.1201 10.16 9.92012C10.64 9.44012 11.12 9.20012 11.6 9.20012H12.8C13.28 9.20012 13.76 9.20012 14 10.1601C14.48 11.3601 15.68 14.2401 15.68 14.4801C15.92 14.7201 15.92 15.2001 15.68 15.4401C15.92 15.9201 15.68 16.4001 15.44 16.6401C15.2 16.8801 14.96 17.3601 14.72 17.6001C14.24 17.8401 14 18.3201 14.24 18.8001C15.2 20.2401 16.4 21.6801 17.6 22.8801C19.04 24.0801 20.48 25.0401 22.16 25.7601C22.64 26.0001 23.12 26.0001 23.36 25.5201C23.6 25.0401 24.8 23.8401 25.28 23.3601C25.76 22.8801 26 22.8801 26.48 23.1201L30.32 25.0401C30.8 25.2801 31.28 25.5201 31.52 25.7601C31.76 26.4801 31.76 27.4401 31.28 28.1601Z" fill="currentColor"/>
</svg>
