<svg width="76" height="76" viewBox="0 0 76 76" fill="none" xmlns="http://www.w3.org/2000/svg">
<g clip-path="url(#clip0_28_488)">
<path d="M56.9602 24.8035C54.787 18.6719 51.0706 13.2036 46.1695 8.92594L45.2974 8.16572L44.2035 8.54258C37.9519 10.6898 32.3761 14.4456 28.0371 19.4322C23.6981 24.4187 20.7489 30.4601 19.4864 36.9485C19.404 37.3712 19.3276 37.8019 19.2593 38.2287C18.3336 44.0155 19.5888 49.2815 22.8892 53.4572C25.4148 56.6528 28.9958 59.0012 33.114 60.1979L31.7918 66.9786L35.7178 67.7442L41.8424 36.3357L37.9159 35.5701L33.884 56.2466C27.4008 54.1848 21.7127 48.2117 23.2088 38.8603C23.2698 38.478 23.3382 38.0924 23.4119 37.714C24.516 32.1142 27.0207 26.8854 30.6923 22.5156C34.3639 18.1457 39.0828 14.7772 44.4084 12.7245C48.5726 16.6278 51.68 21.5224 53.4407 26.9515C55.2014 32.3807 55.5581 38.1674 54.4773 43.7717C54.4035 44.1501 54.322 44.5332 54.2349 44.9105C52.5335 52.2929 47.3831 55.9439 41.9183 56.8407L41.1081 60.9958C43.8987 60.7619 46.6064 59.9305 49.0474 58.5578C53.6749 55.928 56.8166 51.5194 58.1329 45.8089C58.2299 45.3877 58.321 44.9598 58.4034 44.5371C59.6919 37.9483 59.1936 31.1347 56.9602 24.8035Z" fill="#DAFFD4" fill-opacity="0.85"/>
</g>
<defs>
<clipPath id="clip0_28_488">
<rect width="64" height="64" fill="white" transform="translate(12.2493 0.00012207) rotate(11.0341)"/>
</clipPath>
</defs>
</svg>
