<svg width="96" height="106" viewBox="0 0 96 106" fill="none" xmlns="http://www.w3.org/2000/svg">
<g filter="url(#filter0_d_33_523)">
<g filter="url(#filter1_d_33_523)">
<path d="M94 13.9092V23.1819C94 31.7894 90.5139 40.0444 84.3088 46.1308C78.1036 52.2172 69.6876 55.6365 60.9122 55.6365H56.1854V60.2729H79.8195V92.7274C79.8195 95.1867 78.8235 97.5453 77.0506 99.2843C75.2777 101.023 72.8731 102 70.3659 102H32.5513C30.0441 102 27.6395 101.023 25.8666 99.2843C24.0937 97.5453 23.0977 95.1867 23.0977 92.7274V60.2729H46.7318V46.3638C46.7318 37.7563 50.2178 29.5013 56.423 23.4149C62.6281 17.3285 71.0441 13.9092 79.8195 13.9092H94ZM20.7343 9.27284C26.4064 9.26833 31.9965 10.6006 37.034 13.1575C42.0716 15.7144 46.4091 19.4211 49.6813 23.9655C44.6868 30.4034 41.9894 38.2739 42.005 46.3638V51.0001H39.6416C30.2393 51.0001 21.2222 47.3366 14.5738 40.8154C7.92545 34.2943 4.19043 25.4497 4.19043 16.2274V9.27284H20.7343Z" fill="white"/>
</g>
<g clip-path="url(#clip0_33_523)">
<path d="M94 13.9092V23.1819C94 31.7894 90.5139 40.0444 84.3088 46.1308C78.1036 52.2172 69.6877 55.6365 60.9122 55.6365H56.1854V60.2729H79.8195V92.7275C79.8195 95.1867 78.8235 97.5453 77.0506 99.2843C75.2777 101.023 72.8731 102 70.3659 102H32.5513C30.0441 102 27.6395 101.023 25.8666 99.2843C24.0937 97.5453 23.0977 95.1867 23.0977 92.7275V60.2729H46.7318V46.3638C46.7318 37.7563 50.2178 29.5013 56.423 23.4149C62.6281 17.3285 71.0441 13.9092 79.8195 13.9092H94ZM20.7343 9.27284C26.4064 9.26833 31.9965 10.6006 37.0341 13.1575C42.0716 15.7144 46.4091 19.4211 49.6813 23.9655C44.6868 30.4035 41.9894 38.2739 42.005 46.3638V51.0002H39.6416C30.2393 51.0002 21.2222 47.3366 14.5738 40.8154C7.92545 34.2943 4.19043 25.4497 4.19043 16.2274V9.27284H20.7343Z" fill="#7DA85D"/>
</g>
<g clip-path="url(#clip1_33_523)">
<path d="M94 13.9092V23.1819C94 31.7894 90.5139 40.0444 84.3088 46.1308C78.1036 52.2172 69.6876 55.6365 60.9122 55.6365H56.1854V60.2729H79.8195V92.7275C79.8195 95.1867 78.8235 97.5453 77.0506 99.2843C75.2777 101.023 72.8731 102 70.3659 102H32.5513C30.0441 102 27.6395 101.023 25.8666 99.2843C24.0937 97.5453 23.0977 95.1867 23.0977 92.7275V60.2729H46.7318V46.3638C46.7318 37.7563 50.2178 29.5013 56.423 23.4149C62.6281 17.3285 71.0441 13.9092 79.8195 13.9092H94ZM20.7343 9.27284C26.4064 9.26833 31.9965 10.6006 37.034 13.1575C42.0716 15.7144 46.4091 19.4211 49.6813 23.9655C44.6868 30.4035 41.9894 38.2739 42.005 46.3638V51.0002H39.6416C30.2393 51.0002 21.2222 47.3366 14.5738 40.8154C7.92545 34.2943 4.19043 25.4497 4.19043 16.2274V9.27284H20.7343Z" fill="#7DA85D"/>
</g>
</g>
<defs>
<filter id="filter0_d_33_523" x="0" y="0.00012207" width="96" height="106" filterUnits="userSpaceOnUse" color-interpolation-filters="sRGB">
<feFlood flood-opacity="0" result="BackgroundImageFix"/>
<feColorMatrix in="SourceAlpha" type="matrix" values="0 0 0 0 0 0 0 0 0 0 0 0 0 0 0 0 0 0 127 0" result="hardAlpha"/>
<feOffset dy="2"/>
<feGaussianBlur stdDeviation="1"/>
<feComposite in2="hardAlpha" operator="out"/>
<feColorMatrix type="matrix" values="0 0 0 0 0 0 0 0 0 0 0 0 0 0 0 0 0 0 0.25 0"/>
<feBlend mode="normal" in2="BackgroundImageFix" result="effect1_dropShadow_33_523"/>
<feBlend mode="normal" in="SourceGraphic" in2="effect1_dropShadow_33_523" result="shape"/>
</filter>
<filter id="filter1_d_33_523" x="3.19043" y="9.27283" width="91.8096" height="96.7274" filterUnits="userSpaceOnUse" color-interpolation-filters="sRGB">
<feFlood flood-opacity="0" result="BackgroundImageFix"/>
<feColorMatrix in="SourceAlpha" type="matrix" values="0 0 0 0 0 0 0 0 0 0 0 0 0 0 0 0 0 0 127 0" result="hardAlpha"/>
<feOffset dy="3"/>
<feGaussianBlur stdDeviation="0.5"/>
<feComposite in2="hardAlpha" operator="out"/>
<feColorMatrix type="matrix" values="0 0 0 0 0 0 0 0 0 0 0 0 0 0 0 0 0 0 0.25 0"/>
<feBlend mode="normal" in2="BackgroundImageFix" result="effect1_dropShadow_33_523"/>
<feBlend mode="normal" in="SourceGraphic" in2="effect1_dropShadow_33_523" result="shape"/>
</filter>
<clipPath id="clip0_33_523">
<rect width="43.2331" height="58.0111" fill="white" transform="translate(2 0.00012207)"/>
</clipPath>
<clipPath id="clip1_33_523">
<rect width="14.1805" height="31.8892" fill="white" transform="translate(36.2407 0.00012207)"/>
</clipPath>
</defs>
</svg>
