<svg width="32" height="32" viewBox="0 0 32 32" fill="none" xmlns="http://www.w3.org/2000/svg">
<path d="M9.00011 13C7.89386 13 7.00011 13.8875 7.00011 14.9438C7.00011 16.1063 7.89386 17 9.00011 17C10.1064 17 10.9439 16.1094 10.9439 15C10.9439 13.8906 10.1126 13 9.00011 13ZM16.0001 12.9438C14.8907 12.9438 14.0564 13.8344 14.0564 14.9438C14.0564 16.0531 14.947 16.8875 16.0001 16.8875C17.0532 16.8875 17.9439 15.9969 17.9439 14.9438C17.9439 13.8906 17.1126 12.9438 16.0001 12.9438ZM23.0001 13C21.8907 13 21.0564 13.8906 21.0564 15C21.0564 16.1094 21.947 17 23.0001 17C24.1095 17 24.9995 16.1094 24.9995 15C25.0001 13.8875 24.1126 13 23.0001 13ZM16.0001 1.94375C7.16261 1.94375 0.0563577 7.76375 0.0563577 14.9438C0.0563577 17.92 1.30073 20.6469 3.36323 22.8375C2.43386 25.3062 0.496358 27.3925 0.465108 27.4156C0.0511077 27.8531 -0.0582048 28.4937 0.176108 29.0406C0.363733 29.6375 0.898858 30 1.50011 30C5.34323 30 8.31886 28.3906 10.1939 27.1094C11.9982 27.6719 13.9539 28 16.0001 28C24.8376 28 31.9439 22.1794 31.9439 15.0562C31.9439 7.93312 24.8376 1.94375 16.0001 1.94375ZM16.0001 25C14.3282 25 12.6801 24.7422 11.1026 24.2425L9.68073 23.7972L8.46261 24.6562C7.57198 25.2887 6.34573 25.9925 4.86948 26.4688C5.33036 25.7113 5.76761 24.8594 6.11136 23.9531L6.77511 22.2031L5.48636 20.8363C4.36323 19.6313 3.00386 17.6375 3.00386 15C3.00386 9.48438 8.83136 5 15.9476 5C23.0639 5 28.8914 9.48438 28.8914 15C28.8914 20.5156 23.1751 25 16.0001 25Z" fill="#7DA85D"/>
</svg>
