<svg viewBox="0 0 38 38" fill="none" xmlns="http://www.w3.org/2000/svg">
<path d="M19.0002 12.7517C15.5596 12.7517 12.7518 15.5595 12.7518 19.0001C12.7518 22.4408 15.5596 25.2486 19.0002 25.2486C22.4408 25.2486 25.2487 22.4408 25.2487 19.0001C25.2487 15.5595 22.4408 12.7517 19.0002 12.7517ZM37.7408 19.0001C37.7408 16.4126 37.7643 13.8486 37.619 11.2658C37.4737 8.26577 36.7893 5.60327 34.5955 3.40952C32.3971 1.21109 29.7393 0.531399 26.7393 0.386087C24.1518 0.240774 21.5877 0.264212 19.0049 0.264212C16.4174 0.264212 13.8533 0.240774 11.2705 0.386087C8.27054 0.531399 5.60804 1.21577 3.41428 3.40952C1.21585 5.60796 0.53616 8.26577 0.390847 11.2658C0.245535 13.8533 0.268972 16.4173 0.268972 19.0001C0.268972 21.583 0.245535 24.1517 0.390847 26.7345C0.53616 29.7345 1.22053 32.397 3.41428 34.5908C5.61272 36.7892 8.27054 37.4689 11.2705 37.6142C13.858 37.7595 16.4221 37.7361 19.0049 37.7361C21.5924 37.7361 24.1565 37.7595 26.7393 37.6142C29.7393 37.4689 32.4018 36.7845 34.5955 34.5908C36.794 32.3923 37.4737 29.7345 37.619 26.7345C37.769 24.1517 37.7408 21.5876 37.7408 19.0001ZM19.0002 28.6142C13.6799 28.6142 9.38616 24.3205 9.38616 19.0001C9.38616 13.6798 13.6799 9.38609 19.0002 9.38609C24.3205 9.38609 28.6143 13.6798 28.6143 19.0001C28.6143 24.3205 24.3205 28.6142 19.0002 28.6142ZM29.008 11.2376C27.7658 11.2376 26.7627 10.2345 26.7627 8.99234C26.7627 7.75015 27.7658 6.74702 29.008 6.74702C30.2502 6.74702 31.2533 7.75015 31.2533 8.99234C31.2537 9.2873 31.1959 9.57944 31.0832 9.85202C30.9705 10.1246 30.8051 10.3723 30.5965 10.5808C30.388 10.7894 30.1403 10.9548 29.8677 11.0675C29.5951 11.1802 29.303 11.238 29.008 11.2376Z" fill="currentColor"/>
</svg>
