<svg width="72" height="72" viewBox="0 0 72 72" fill="none" xmlns="http://www.w3.org/2000/svg">
<path fill-rule="evenodd" clip-rule="evenodd" d="M36 27C36 36.2655 30.75 43.896 24 44.8905V58.5H48V45.069H40.9095C39.8038 45.0695 38.7303 44.6966 37.8629 44.0109C36.9954 43.3252 36.3849 42.3668 36.1301 41.2908C35.8753 40.2149 35.9912 39.0844 36.4589 38.0825C36.9267 37.0806 37.719 36.266 38.7075 35.7705C38.2709 34.3011 38.4 32.7215 39.0692 31.3425C39.7385 29.9634 40.8995 28.8847 42.324 28.3185C42.0757 27.2394 42.074 26.1182 42.319 25.0383C42.564 23.9584 43.0493 22.9477 43.739 22.0814C44.4286 21.215 45.3047 20.5154 46.3022 20.0345C47.2996 19.5536 48.3927 19.3039 49.5 19.3039C50.6073 19.3039 51.7004 19.5536 52.6978 20.0345C53.6953 20.5154 54.5714 21.215 55.261 22.0814C55.9507 22.9477 56.4361 23.9584 56.681 25.0383C56.926 26.1182 56.9243 27.2394 56.676 28.3185C58.1005 28.8847 59.2615 29.9634 59.9308 31.3425C60.6 32.7215 60.7291 34.3011 60.2925 35.7705C61.281 36.266 62.0733 37.0806 62.5411 38.0825C63.0088 39.0844 63.1247 40.2149 62.8699 41.2908C62.6151 42.3668 62.0046 43.3252 61.1371 44.0109C60.2697 44.6966 59.1962 45.0695 58.0905 45.069H51V58.5H60.75C61.3467 58.5 61.919 58.7371 62.341 59.159C62.7629 59.581 63 60.1533 63 60.75C63 61.3467 62.7629 61.919 62.341 62.341C61.919 62.7629 61.3467 63 60.75 63H11.25C10.6533 63 10.081 62.7629 9.65901 62.341C9.23705 61.919 9 61.3467 9 60.75C9 60.1533 9.23705 59.581 9.65901 59.159C10.081 58.7371 10.6533 58.5 11.25 58.5H21V44.8905C14.25 43.896 9 36.2655 9 27C9 17.0595 15.045 9 22.5 9C29.955 9 36 17.0595 36 27Z" fill="#7DA85D"/>
</svg>
