<svg width="72" height="72" viewBox="0 0 72 72" fill="none" xmlns="http://www.w3.org/2000/svg">
<path d="M60.002 58C59.649 58.0007 59.3022 57.9077 58.9969 57.7306C58.6916 57.5535 58.4387 57.2987 58.264 56.992L49.794 43.04C49.246 42.082 49.46 40.882 50.418 40.332L60.334 34.332C60.646 34.154 61.326 34 61.662 34C62.358 34 63.006 34.396 63.374 35.042L69.588 45.286L69.916 49.75C70.464 50.708 68 52.118 67.04 52.666L60.99 57.736C60.6897 57.9097 60.3488 58.0008 60.002 58Z" fill="#3E721D"/>
<path d="M46 64C45.4696 64 44.9609 63.7893 44.5858 63.4142C44.2107 63.0391 44 62.5304 44 62V50C44 49.4696 44.2107 48.9608 44.5858 48.5858C44.9609 48.2107 45.4696 48 46 48H66C69.7 48 69.1 44.438 69.1 44.438C69.1 44.438 69.754 45.562 69.85 45.74C70.504 46.968 70.938 48.844 69.918 50.75L63.74 62.994C63.45 63.572 62.758 64 62 64H46Z" fill="#7DA85D"/>
<path d="M43.9999 70C43.4695 69.9999 42.9609 69.7891 42.5859 69.414L30.5859 57.414C30.4 57.2284 30.2525 57.008 30.1519 56.7654C30.0513 56.5228 29.9995 56.2627 29.9995 56C29.9995 55.7373 30.0513 55.4772 30.1519 55.2346C30.2525 54.992 30.4 54.7716 30.5859 54.586L42.5859 42.586C42.8656 42.3064 43.2219 42.116 43.6098 42.0388C43.9978 41.9617 44.3998 42.0013 44.7652 42.1526C45.1306 42.304 45.4429 42.5603 45.6627 42.8891C45.8825 43.2179 45.9998 43.6045 45.9999 44V68C46.0002 68.2627 45.9486 68.5229 45.8482 68.7657C45.7478 69.0084 45.6005 69.229 45.4147 69.4148C45.2289 69.6006 45.0084 69.7479 44.7656 69.8483C44.5228 69.9487 44.2626 70.0003 43.9999 70Z" fill="#7DA85D"/>
<path d="M41.1858 6.598C41.3467 6.91242 41.4215 7.26386 41.4025 7.61656C41.3836 7.96926 41.2715 8.31064 41.0778 8.606L32.4918 22.486C31.8858 23.412 30.7198 23.764 29.7958 23.158L19.9478 17.05C19.5839 16.7675 19.2782 16.417 19.0478 16.018C18.8937 15.7011 18.8264 15.3491 18.8527 14.9977C18.8791 14.6464 18.9982 14.3083 19.1978 14.018L25.5018 3.83L29.3298 1.512C29.9358 0.585997 32.3098 2.142 33.2358 2.75L40.4978 5.838C40.7894 6.02711 41.0266 6.28909 41.1858 6.598Z" fill="#3E721D"/>
<path d="M52.8878 16.35C53.0073 16.5841 53.0796 16.8395 53.1003 17.1015C53.1211 17.3636 53.09 17.6272 53.0088 17.8772C52.9277 18.1272 52.798 18.3588 52.6273 18.5586C52.4565 18.7585 52.248 18.9228 52.0138 19.042L41.3198 24.49C40.8474 24.7302 40.2989 24.773 39.7949 24.6092C39.2909 24.4453 38.8726 24.0881 38.6318 23.616L29.5478 5.796C27.8698 2.498 24.9678 4.65 24.9678 4.65C24.9678 4.65 25.6718 3.558 25.7878 3.39C26.5858 2.25 28.0578 1.014 30.2198 1.056L43.9378 1C44.5858 1 45.2798 1.418 45.6258 2.094L52.8878 16.35Z" fill="#7DA85D"/>
<path d="M59.1421 15.41C59.3824 15.8821 59.4255 16.4301 59.2621 16.934L54.0201 33.076C53.8562 33.5804 53.4986 33.9991 53.026 34.2399C52.5535 34.4807 52.0046 34.5239 51.5001 34.36L35.3601 29.114C34.9835 28.9923 34.6513 28.7617 34.4057 28.4512C34.1601 28.1408 34.012 27.7646 33.9801 27.37C33.9495 26.9756 34.0365 26.5809 34.2302 26.236C34.4238 25.891 34.7154 25.6112 35.0681 25.432L56.4521 14.536C56.6859 14.4157 56.9412 14.3428 57.2033 14.3217C57.4654 14.3005 57.7291 14.3315 57.9792 14.4127C58.2292 14.494 58.4608 14.6239 58.6604 14.7951C58.86 14.9662 59.0237 15.1752 59.1421 15.41Z" fill="#7DA85D"/>
<path d="M6.74996 49.084C6.93286 48.7824 7.19255 48.5349 7.50247 48.3666C7.81239 48.1982 8.16145 48.1152 8.51396 48.126L24.836 48.136C25.942 48.17 26.854 48.976 26.826 50.08L26.798 61.67C26.788 62.03 26.566 62.694 26.392 62.978C26.2031 63.2756 25.9386 63.5177 25.6255 63.6797C25.3125 63.8417 24.962 63.9177 24.61 63.9L12.63 63.884L8.64396 61.846C7.54196 61.812 7.61796 58.976 7.64596 57.874L6.45996 50.066C6.46885 49.7189 6.56886 49.3802 6.74996 49.084Z" fill="#3E721D"/>
<path d="M8.90183 34.004C9.03826 33.7796 9.21757 33.5842 9.42952 33.4291C9.64146 33.2739 9.88188 33.1621 10.1371 33.0999C10.3922 33.0376 10.6572 33.0263 10.9167 33.0665C11.1763 33.1066 11.4254 33.1976 11.6498 33.334L21.9018 39.572C22.1265 39.7083 22.322 39.8875 22.4773 40.0994C22.6326 40.3113 22.7445 40.5518 22.8068 40.807C22.869 41.0623 22.8803 41.3273 22.84 41.5869C22.7997 41.8465 22.7085 42.0957 22.5718 42.32L12.1778 59.406C10.2578 62.566 13.6118 63.906 13.6118 63.906C13.6118 63.906 12.3118 63.878 12.1098 63.866C10.7178 63.79 8.89182 63.184 7.79182 61.324L0.539825 49.684C0.197825 49.134 0.191825 48.32 0.585825 47.672L8.90183 34.004Z" fill="#7DA85D"/>
<path d="M4.8142 29.178C5.0862 28.73 5.5242 28.402 6.0502 28.27L22.5402 24.258C22.7952 24.1953 23.0601 24.1836 23.3197 24.2235C23.5793 24.2634 23.8284 24.3542 24.0529 24.4906C24.2773 24.6269 24.4727 24.8063 24.6277 25.0183C24.7827 25.2303 24.8943 25.4708 24.9562 25.726L28.9702 42.214C29.062 42.5981 29.0383 43.0009 28.902 43.3716C28.7656 43.7423 28.5228 44.0644 28.204 44.2976C27.8852 44.5307 27.5046 44.6644 27.11 44.6819C26.7154 44.6994 26.3244 44.6 25.9862 44.396L5.4862 31.926C5.03302 31.6504 4.70772 31.2062 4.58172 30.691C4.45573 30.1758 4.53934 29.6316 4.8142 29.178Z" fill="#7DA85D"/>
</svg>
