<svg viewBox="0 0 48 48" fill="none" xmlns="http://www.w3.org/2000/svg">
<g clip-path="url(#clip0_33_532)">
<path d="M48 24.0001C48 30.3653 45.4714 36.4698 40.9706 40.9707C36.4697 45.4716 30.3652 48.0001 24 48.0001C17.6348 48.0001 11.5303 45.4716 7.02944 40.9707C2.52856 36.4698 0 30.3653 0 24.0001C0 17.6349 2.52856 11.5304 7.02944 7.02956C11.5303 2.52869 17.6348 0.00012207 24 0.00012207C30.3652 0.00012207 36.4697 2.52869 40.9706 7.02956C45.4714 11.5304 48 17.6349 48 24.0001ZM24.861 17.7181C22.527 18.6901 17.859 20.7001 10.863 23.7481C9.729 24.1981 9.132 24.6421 9.078 25.0741C8.988 25.8031 9.903 26.0911 11.148 26.4841L11.673 26.6491C12.897 27.0481 14.547 27.5131 15.402 27.5311C16.182 27.5491 17.049 27.2311 18.006 26.5711C24.543 22.1581 27.918 19.9291 28.128 19.8811C28.278 19.8451 28.488 19.8031 28.626 19.9291C28.767 20.0521 28.752 20.2891 28.737 20.3521C28.647 20.7391 25.056 24.0751 23.199 25.8031C22.62 26.3431 22.209 26.7241 22.125 26.8111C21.94 27.0002 21.752 27.1862 21.561 27.3691C20.421 28.4671 19.569 29.2891 21.606 30.6331C22.587 31.2811 23.373 31.8121 24.156 32.3461C25.008 32.9281 25.86 33.5071 26.964 34.2331C27.243 34.4131 27.513 34.6081 27.774 34.7941C28.767 35.5021 29.664 36.1381 30.765 36.0361C31.407 35.9761 32.07 35.3761 32.406 33.5761C33.201 29.3251 34.764 20.1181 35.124 16.3231C35.146 16.0076 35.1329 15.6907 35.085 15.3781C35.0568 15.1259 34.9347 14.8935 34.743 14.7271C34.47 14.5387 34.1446 14.4411 33.813 14.4481C32.913 14.4631 31.524 14.9461 24.861 17.7181Z" fill="currentColor"/>
</g>
<defs>
<clipPath id="clip0_33_532">
<rect width="48" height="48" fill="white"/>
</clipPath>
</defs>
</svg>
