<svg width="72" height="72" viewBox="0 0 72 72" fill="none" xmlns="http://www.w3.org/2000/svg">
<path d="M32.1752 43.2C14.8502 46.35 24.4127 55.0125 24.9752 58.05C25.5377 61.0875 19.4627 72.3375 36.9002 69.1875C55.0127 65.925 60.3002 48.375 60.3002 48.375C60.3002 48.375 38.1377 42.075 32.1752 43.2Z" fill="#7DA85D"/>
<path d="M29.1373 56.7L32.6248 56.025L33.4123 45L33.2998 55.9125L39.3748 54.5625L40.4998 45.5625L39.9373 54.45L45.2248 53.1L48.7123 47.925L46.0123 52.9875L60.2998 48.375L46.1248 53.55L52.0873 57.0375L45.3373 53.6625L40.0498 55.125L45.1123 63.225L39.4873 55.35L33.4123 56.925L37.3498 67.05L32.8498 57.0375L29.3623 57.825L28.6873 65.25L28.7998 57.9375L19.5748 59.9625L19.2373 58.3875L28.5748 56.7L25.8748 49.95L29.1373 56.7Z" fill="#7DA85D"/>
<path d="M23.0624 56.025C20.0249 54.9 17.2124 52.7625 15.1874 49.95C13.1624 47.1375 12.0374 43.65 11.8124 40.1625C11.6999 38.3625 11.6999 36.675 12.0374 34.875C12.3749 33.075 12.8249 31.3875 13.4999 29.7C14.8499 26.325 16.8749 23.2875 19.4624 20.8125C19.7999 20.475 20.1374 20.25 20.4749 19.9125L21.0374 19.4625L21.4874 19.125C22.1624 18.5625 22.9499 18 23.6249 17.55C25.0874 16.5375 26.6624 15.6375 28.3499 14.9625C31.7249 13.6125 35.3249 12.825 39.0374 12.825C42.7499 12.9375 46.4624 13.8375 49.8374 15.75C51.5249 16.7625 53.0999 18.1125 54.3374 19.8C55.5749 21.4875 56.4749 23.625 56.5874 25.875C56.6999 28.125 56.0249 30.2625 55.0124 32.0625C53.9999 33.8625 52.6499 35.2125 51.2999 36.45C48.4874 38.925 44.9999 40.6125 41.2874 41.175C39.3749 41.4 37.4624 41.4 35.5499 40.95C33.6374 40.5 31.7249 39.6 30.2624 37.9125C28.7999 36.3375 28.0124 34.0875 28.1249 32.0625C28.1249 30.0375 28.6874 28.2375 29.4749 26.55C31.0499 23.2875 33.2999 20.7 35.6624 18.3375C38.0249 15.975 40.6124 13.95 43.3124 12.0375C48.7124 8.21253 54.3374 5.06253 60.2999 2.25003C54.8999 5.85003 49.4999 9.56253 44.6624 13.725C42.1874 15.75 39.9374 18 37.7999 20.3625C35.7749 22.725 33.8624 25.3125 32.8499 28.0125C32.2874 29.3625 32.0624 30.7125 32.0624 31.95C32.1749 33.1875 32.6249 34.2 33.4124 34.9875C34.9874 36.5625 37.9124 37.0125 40.4999 36.45C43.1999 35.8875 45.7874 34.5375 47.6999 32.625C49.7249 30.6 50.9624 28.2375 50.6249 26.325C50.3999 24.3 48.8249 22.3875 46.5749 21.15C44.3249 19.8 41.5124 19.2375 38.8124 19.125C33.1874 19.0125 27.4499 21.2625 23.0624 24.975C20.9249 26.8875 19.0124 29.1375 17.6624 31.725C16.9874 33.075 16.4249 34.425 16.0874 35.775C15.6374 37.2375 15.4124 38.7 15.2999 40.1625C15.1874 43.0875 15.6374 46.125 16.8749 48.9375C18.2249 51.6375 20.3624 54.1125 23.0624 56.025Z" fill="#42ADE2"/>
</svg>
