<svg width="72" height="72" viewBox="0 0 72 72" fill="none" xmlns="http://www.w3.org/2000/svg">
<g opacity="0.7">
<path d="M35.5752 32.7348C33.7356 47.5488 24.3396 50.184 24.3396 60.4836C24.3396 66.8412 29.6784 72 36 72C42.3216 72 47.6568 66.8376 47.6568 60.4836C47.6568 50.184 38.2608 47.5488 36.4212 32.7348C36.3636 32.292 35.6328 32.292 35.5752 32.7348ZM13.9788 0.334786C12.1392 15.1488 2.74316 17.7804 2.74316 28.0836C2.74316 34.4376 8.07836 39.6 14.4 39.6C20.7216 39.6 26.0568 34.4376 26.0568 28.0836C26.0568 17.784 16.6608 15.1488 14.8212 0.334786C14.7672 -0.108014 14.0328 -0.108014 13.9788 0.334786ZM57.1788 0.334786C55.3392 15.1488 45.9432 17.784 45.9432 28.0836C45.9432 34.4376 51.2784 39.6 57.6 39.6C63.9216 39.6 69.2568 34.4376 69.2568 28.0836C69.2568 17.784 59.8608 15.1488 58.0212 0.334786C57.9636 -0.108014 57.2328 -0.108014 57.1788 0.334786Z" fill="#00D1FF"/>
</g>
</svg>
